<svg xmlns="http://www.w3.org/2000/svg" xmlns:xlink="http://www.w3.org/1999/xlink" width="100" zoomAndPan="magnify" viewBox="0 0 75 74.999997" height="100" preserveAspectRatio="xMidYMid meet" version="1.0"><path fill="#ffffff" d="M 72.496094 2.484375 C 70.878906 0.90625 68.785156 0 66.496094 0 L 8.503906 0 C 6.253906 0 4.082031 0.90625 2.503906 2.484375 C 0.886719 4.0625 0.0195312 6.195312 0.0195312 8.480469 L 0.0195312 66.519531 C 0.0195312 68.765625 0.925781 70.9375 2.503906 72.515625 C 4.121094 74.132812 6.214844 75 8.503906 75 L 35.726562 75 C 36.710938 75 37.5 74.210938 37.5 73.226562 L 37.5 52.710938 C 37.5 51.722656 36.710938 50.933594 35.726562 50.933594 L 26.808594 50.933594 L 26.808594 43.792969 L 35.726562 43.792969 C 36.710938 43.792969 37.5 43.003906 37.5 42.015625 L 37.5 31.445312 C 37.5 29.984375 38.089844 28.523438 39.117188 27.5 C 40.144531 26.472656 41.601562 25.882812 43.0625 25.882812 L 55.332031 25.882812 L 55.332031 33.023438 L 46.417969 33.023438 C 45.429688 33.023438 44.640625 33.8125 44.640625 34.796875 L 44.640625 41.9375 C 44.640625 42.925781 45.429688 43.714844 46.417969 43.714844 L 55.332031 43.714844 L 55.332031 50.855469 L 46.417969 50.855469 C 45.429688 50.855469 44.640625 51.644531 44.640625 52.628906 L 44.640625 73.144531 C 44.640625 74.132812 45.429688 74.921875 46.417969 74.921875 L 66.496094 74.921875 C 68.746094 74.921875 70.878906 74.054688 72.496094 72.433594 C 74.074219 70.859375 74.980469 68.6875 74.980469 66.4375 L 74.980469 8.480469 C 74.980469 6.195312 74.113281 4.0625 72.496094 2.484375 Z M 71.429688 66.476562 C 71.429688 67.78125 70.917969 69.042969 70.007812 69.949219 C 69.101562 70.859375 67.839844 71.371094 66.539062 71.371094 L 48.230469 71.371094 L 48.230469 54.40625 L 57.148438 54.40625 C 58.132812 54.40625 58.921875 53.617188 58.921875 52.628906 L 58.921875 41.9375 C 58.921875 40.953125 58.132812 40.164062 57.148438 40.164062 L 48.230469 40.164062 L 48.230469 36.613281 L 57.148438 36.613281 C 58.132812 36.613281 58.921875 35.824219 58.921875 34.835938 L 58.921875 24.105469 C 58.921875 23.121094 58.132812 22.332031 57.148438 22.332031 L 43.101562 22.332031 C 40.695312 22.332031 38.328125 23.316406 36.632812 25.011719 C 34.894531 26.710938 33.949219 28.996094 33.949219 31.445312 L 33.949219 40.125 L 24.992188 40.125 C 24.007812 40.125 23.21875 40.914062 23.21875 41.898438 L 23.21875 52.589844 C 23.21875 53.578125 24.007812 54.367188 24.992188 54.367188 L 33.949219 54.367188 L 33.949219 71.332031 L 8.503906 71.332031 C 7.199219 71.332031 5.9375 70.816406 5.03125 69.910156 C 4.121094 69.003906 3.609375 67.742188 3.609375 66.4375 L 3.609375 8.480469 C 3.609375 7.179688 4.121094 5.957031 5.03125 5.011719 C 5.9375 4.101562 7.199219 3.550781 8.503906 3.550781 L 66.539062 3.550781 C 67.839844 3.550781 69.0625 4.0625 70.007812 4.972656 C 70.917969 5.878906 71.429688 7.140625 71.429688 8.441406 Z M 71.429688 66.476562 " fill-opacity="1" fill-rule="nonzero"/></svg>