<svg xmlns="http://www.w3.org/2000/svg" xmlns:xlink="http://www.w3.org/1999/xlink" width="100" zoomAndPan="magnify" viewBox="0 0 75 74.999997" height="100" preserveAspectRatio="xMidYMid meet" version="1.0"><path fill="#ffffff" d="M 15.765625 0 L 59.234375 0 C 63.574219 0 67.507812 1.769531 70.359375 4.640625 C 73.230469 7.492188 75 11.425781 75 15.765625 L 75 59.234375 C 75 63.574219 73.230469 67.507812 70.359375 70.359375 C 67.507812 73.230469 63.574219 75 59.234375 75 L 15.765625 75 C 11.425781 75 7.492188 73.230469 4.640625 70.359375 C 1.769531 67.507812 0 63.574219 0 59.234375 L 0 15.765625 C 0 11.425781 1.769531 7.492188 4.640625 4.640625 C 7.492188 1.769531 11.425781 0 15.765625 0 Z M 60.421875 12.292969 C 61.273438 12.292969 61.980469 13 61.980469 13.851562 C 61.980469 14.71875 61.273438 15.410156 60.421875 15.410156 C 59.554688 15.410156 58.863281 14.71875 58.863281 13.851562 C 58.863281 13 59.554688 12.292969 60.421875 12.292969 Z M 37.5 16.5625 C 49.066406 16.5625 58.4375 25.933594 58.4375 37.5 C 58.4375 49.066406 49.066406 58.4375 37.5 58.4375 C 25.933594 58.4375 16.5625 49.066406 16.5625 37.5 C 16.5625 25.933594 25.933594 16.5625 37.5 16.5625 Z M 55.445312 37.5 C 55.445312 27.597656 47.402344 19.554688 37.5 19.554688 C 27.597656 19.554688 19.554688 27.597656 19.554688 37.5 C 19.554688 47.402344 27.597656 55.445312 37.5 55.445312 C 47.402344 55.445312 55.445312 47.402344 55.445312 37.5 Z M 59.234375 3.011719 L 15.765625 3.011719 C 12.257812 3.011719 9.070312 4.445312 6.75 6.75 C 4.445312 9.070312 3.011719 12.257812 3.011719 15.765625 L 3.011719 59.234375 C 3.011719 62.742188 4.445312 65.929688 6.75 68.25 C 9.070312 70.554688 12.257812 71.988281 15.765625 71.988281 L 59.234375 71.988281 C 62.742188 71.988281 65.929688 70.554688 68.25 68.25 C 70.554688 65.929688 71.988281 62.742188 71.988281 59.234375 L 71.988281 15.765625 C 71.988281 12.257812 70.554688 9.070312 68.25 6.75 C 65.929688 4.445312 62.742188 3.011719 59.234375 3.011719 Z M 59.234375 3.011719 " fill-opacity="1" fill-rule="nonzero"/></svg>