<?xml version="1.0" encoding="utf-8"?>
<!-- Generator: Adobe Illustrator 27.0.1, SVG Export Plug-In . SVG Version: 6.00 Build 0)  -->
<svg version="1.1" xmlns="http://www.w3.org/2000/svg" xmlns:xlink="http://www.w3.org/1999/xlink" x="0px" y="0px"
	 viewBox="0 0 100 100" style="enable-background:new 0 0 100 100;" xml:space="preserve">
<style type="text/css">
	.st0{fill:#FFFFFF;stroke:#000000;stroke-width:2;stroke-miterlimit:10;}
	.st1{stroke:#000000;stroke-miterlimit:10;}
	.st2{fill:#F1F2F2;stroke:#000000;stroke-miterlimit:10;}
	.st3{fill:#FFFFFF;stroke:#000000;stroke-miterlimit:10;}
</style>
<g id="Layer_2">
	<circle class="st0" cx="49.91" cy="49.18" r="44.36"/>
</g>
<g id="Layer_1">
	<path class="st1" d="M51.06,24.34V77.2c0,0-32.14-5.22-31.97-26.43S51.06,24.34,51.06,24.34z"/>
	<path class="st2" d="M46.9,29.89v41.74c0,0-23.78-4.12-23.66-20.87C23.36,34.01,46.9,29.89,46.9,29.89z"/>
	<path class="st1" d="M52.4,54.33V24.29h12.1c8.33,0,15.09,6.76,15.09,15.09v0c0,8.33-6.76,15.09-14.23,15.09L52.97,54.8
		l19.48,22.34l4.91,0.14L57.59,54.68"/>
	<path class="st3" d="M53.63,54.54"/>
	<path class="st2" d="M51.91,50.75h11.67l0,0C70.1,50.75,76,45.69,76,39.44v0c0-6.25-5.9-11.31-13.18-11.31H51.91"/>
	<g>
	</g>
	<g>
	</g>
	<g>
	</g>
	<g>
	</g>
	<g>
	</g>
	<g>
	</g>
</g>
</svg>
