<svg xmlns="http://www.w3.org/2000/svg" xmlns:xlink="http://www.w3.org/1999/xlink" width="300" zoomAndPan="magnify" viewBox="0 0 224.87999 225" height="300" preserveAspectRatio="xMidYMid meet" version="1.0"><defs><clipPath id="84f0fe6d59"><path d="M 0.28125 55 L 60 55 L 60 137 L 0.28125 137 Z M 0.28125 55 " clip-rule="nonzero"/></clipPath><clipPath id="35531799c1"><path d="M 22 188 L 224.761719 188 L 224.761719 190 L 22 190 Z M 22 188 " clip-rule="nonzero"/></clipPath><clipPath id="0c220a5096"><path d="M 38 223 L 113 223 L 113 224.65625 L 38 224.65625 Z M 38 223 " clip-rule="nonzero"/></clipPath><clipPath id="18a8269a39"><path d="M 46 0.0585938 L 97 0.0585938 L 97 20 L 46 20 Z M 46 0.0585938 " clip-rule="nonzero"/></clipPath></defs><g clip-path="url(#84f0fe6d59)"><path fill="#fbbf36" d="M 59.96875 93.976562 C 59.96875 86.054688 55.488281 79.21875 49.007812 76.023438 C 49.011719 75.882812 49.019531 75.742188 49.019531 75.601562 C 49.019531 64.625 40.410156 55.722656 29.789062 55.722656 C 19.171875 55.722656 10.566406 64.625 10.566406 75.601562 C 10.566406 75.917969 10.574219 76.230469 10.589844 76.542969 C 4.644531 79.921875 0.609375 86.460938 0.609375 93.976562 C 0.609375 98.046875 1.796875 101.832031 3.828125 104.984375 C 1.625 108.21875 0.332031 112.15625 0.332031 116.414062 C 0.332031 127.394531 8.9375 136.292969 19.558594 136.292969 C 23.472656 136.292969 27.113281 135.082031 30.148438 133.003906 C 33.1875 135.082031 36.828125 136.292969 40.742188 136.292969 C 51.359375 136.292969 59.96875 127.394531 59.96875 116.414062 C 59.96875 112.25 58.730469 108.386719 56.613281 105.195312 C 58.730469 102 59.96875 98.136719 59.96875 93.976562 " fill-opacity="1" fill-rule="nonzero"/></g><path fill="#305dae" d="M 29.109375 126.90625 C 29.609375 145.15625 30.183594 170.011719 30.164062 187.765625 L 31.917969 187.765625 C 31.929688 168.328125 31.246094 140.386719 30.722656 121.902344 C 33.042969 120.941406 40.554688 115.925781 42.179688 91.089844 C 42.214844 90.609375 41.847656 90.195312 41.363281 90.164062 C 40.871094 90.121094 40.46875 90.5 40.4375 90.976562 C 39.007812 112.828125 33.011719 118.550781 30.667969 119.96875 C 30.375 109.796875 30.144531 102.925781 30.140625 102.730469 C 30.121094 102.25 29.742188 101.863281 29.234375 101.886719 C 28.753906 101.90625 28.371094 102.308594 28.390625 102.789062 C 28.394531 103.011719 28.703125 112.15625 29.058594 125.007812 C 25.902344 123.628906 17.042969 118.578125 17.878906 105.390625 C 17.910156 104.910156 17.542969 104.496094 17.0625 104.464844 C 16.582031 104.4375 16.164062 104.800781 16.132812 105.28125 C 15.171875 120.496094 26.546875 125.886719 29.109375 126.90625 " fill-opacity="1" fill-rule="nonzero"/><path fill="#fbbf36" d="M 167.050781 187.9375 L 68.734375 187.9375 L 68.734375 47.324219 L 167.050781 47.324219 L 167.050781 187.9375 " fill-opacity="1" fill-rule="nonzero"/><path fill="#ef316b" d="M 167.050781 68.699219 L 167.050781 47.324219 L 68.734375 47.324219 L 68.734375 68.699219 L 167.050781 68.699219 " fill-opacity="1" fill-rule="nonzero"/><path fill="#fbbf36" d="M 131.488281 58.015625 C 131.488281 60.269531 129.652344 62.101562 127.390625 62.101562 C 125.128906 62.101562 123.296875 60.269531 123.296875 58.015625 C 123.296875 55.757812 125.128906 53.925781 127.390625 53.925781 C 129.652344 53.925781 131.488281 55.757812 131.488281 58.015625 " fill-opacity="1" fill-rule="nonzero"/><path fill="#fbbf36" d="M 144.085938 58.015625 C 144.085938 60.269531 142.253906 62.101562 139.992188 62.101562 C 137.726562 62.101562 135.894531 60.269531 135.894531 58.015625 C 135.894531 55.757812 137.726562 53.925781 139.992188 53.925781 C 142.253906 53.925781 144.085938 55.757812 144.085938 58.015625 " fill-opacity="1" fill-rule="nonzero"/><path fill="#fbbf36" d="M 156.578125 58.015625 C 156.578125 60.269531 154.746094 62.101562 152.484375 62.101562 C 150.222656 62.101562 148.386719 60.269531 148.386719 58.015625 C 148.386719 55.757812 150.222656 53.925781 152.484375 53.925781 C 154.746094 53.925781 156.578125 55.757812 156.578125 58.015625 " fill-opacity="1" fill-rule="nonzero"/><path fill="#ffffff" d="M 152.484375 140.910156 L 83.304688 140.910156 L 83.304688 79.671875 L 152.484375 79.671875 L 152.484375 140.910156 " fill-opacity="1" fill-rule="nonzero"/><path fill="#ffffff" d="M 152.484375 165.046875 L 83.304688 165.046875 L 83.304688 148.511719 L 152.484375 148.511719 L 152.484375 165.046875 " fill-opacity="1" fill-rule="nonzero"/><path fill="#fbbf36" d="M 137.15625 130.117188 L 98.136719 130.117188 L 93.195312 100.183594 L 142.59375 100.183594 L 137.15625 130.117188 " fill-opacity="1" fill-rule="nonzero"/><path fill="#ef316b" d="M 144.195312 103.511719 L 91.589844 103.511719 L 91.589844 98.152344 L 144.195312 98.152344 L 144.195312 103.511719 " fill-opacity="1" fill-rule="nonzero"/><path fill="#ef316b" d="M 134.53125 108.992188 L 134.53125 112.875 L 101.070312 112.875 L 101.070312 108.992188 L 134.53125 108.992188 " fill-opacity="1" fill-rule="nonzero"/><path fill="#ef316b" d="M 132.246094 116 L 132.246094 119.882812 L 103.351562 119.882812 L 103.351562 116 L 132.246094 116 " fill-opacity="1" fill-rule="nonzero"/><path fill="#ef316b" d="M 128.542969 123.007812 L 128.542969 126.886719 L 107.058594 126.886719 L 107.058594 123.007812 L 128.542969 123.007812 " fill-opacity="1" fill-rule="nonzero"/><path fill="#ef316b" d="M 107.953125 86.875 L 100.847656 99.425781 L 105.152344 101.851562 L 112.261719 89.300781 L 107.953125 86.875 " fill-opacity="1" fill-rule="nonzero"/><path fill="#ef316b" d="M 124.195312 89.019531 L 130.117188 102.167969 L 134.625 100.144531 L 128.707031 87 L 124.195312 89.019531 " fill-opacity="1" fill-rule="nonzero"/><path fill="#ef316b" d="M 131.472656 162.96875 L 104.359375 162.96875 L 104.359375 150.957031 L 131.472656 150.957031 L 131.472656 162.96875 " fill-opacity="1" fill-rule="nonzero"/><path fill="#ffffff" d="M 112.761719 159.394531 L 113.207031 159.394531 C 113.566406 159.394531 113.816406 159.210938 113.953125 158.839844 C 114 158.710938 114.027344 158.566406 114.027344 158.40625 C 114.027344 158.011719 113.953125 157.726562 113.800781 157.546875 C 113.664062 157.386719 113.46875 157.300781 113.207031 157.300781 L 112.761719 157.300781 Z M 112.761719 156.289062 L 113.207031 156.289062 C 113.535156 156.289062 113.757812 156.128906 113.867188 155.808594 C 113.910156 155.691406 113.929688 155.542969 113.929688 155.367188 C 113.929688 155.074219 113.859375 154.855469 113.714844 154.707031 C 113.585938 154.570312 113.417969 154.5 113.207031 154.5 L 112.761719 154.5 Z M 111.621094 160.441406 L 111.621094 153.425781 L 113.207031 153.425781 C 113.625 153.425781 114.003906 153.539062 114.339844 153.757812 C 114.625 153.945312 114.832031 154.230469 114.957031 154.625 C 115.023438 154.832031 115.058594 155.082031 115.058594 155.367188 C 115.058594 155.835938 114.929688 156.214844 114.683594 156.496094 C 114.574219 156.617188 114.453125 156.707031 114.308594 156.769531 C 114.546875 156.859375 114.746094 157.039062 114.910156 157.300781 C 115.019531 157.480469 115.101562 157.710938 115.152344 157.996094 C 115.179688 158.140625 115.191406 158.304688 115.191406 158.484375 C 115.191406 158.925781 115.109375 159.300781 114.941406 159.613281 C 114.808594 159.851562 114.625 160.046875 114.386719 160.195312 C 114.113281 160.355469 113.847656 160.441406 113.582031 160.441406 L 111.621094 160.441406 " fill-opacity="1" fill-rule="nonzero"/><path fill="#ffffff" d="M 117.777344 160.515625 C 117.308594 160.515625 116.914062 160.355469 116.589844 160.03125 C 116.261719 159.707031 116.097656 159.3125 116.097656 158.851562 L 116.097656 153.433594 L 117.136719 153.433594 L 117.136719 158.839844 C 117.136719 159.007812 117.195312 159.148438 117.316406 159.269531 C 117.433594 159.386719 117.578125 159.445312 117.746094 159.445312 C 117.917969 159.445312 118.058594 159.386719 118.175781 159.269531 C 118.292969 159.148438 118.351562 159.007812 118.351562 158.839844 L 118.351562 153.433594 L 119.457031 153.433594 L 119.457031 158.851562 C 119.457031 159.320312 119.292969 159.714844 118.964844 160.035156 C 118.636719 160.355469 118.238281 160.515625 117.777344 160.515625 " fill-opacity="1" fill-rule="nonzero"/><path fill="#ffffff" d="M 121.71875 157.503906 L 120.296875 153.425781 L 121.464844 153.425781 L 122.25 155.945312 L 123.027344 153.425781 L 124.199219 153.425781 L 122.777344 157.503906 L 122.777344 160.441406 L 121.71875 160.441406 L 121.71875 157.503906 " fill-opacity="1" fill-rule="nonzero"/><path stroke-linecap="round" transform="matrix(0.0685237, 0, 0, -0.0683526, -29.259962, 254.118174)" fill="none" stroke-linejoin="round" d="M 2331.969496 1427.870588 L 2325.698853 1405.582659 " stroke="#ffffff" stroke-width="6.836" stroke-opacity="1" stroke-miterlimit="10"/><path stroke-linecap="round" transform="matrix(0.0685237, 0, 0, -0.0683526, -29.259962, 254.118174)" fill="none" stroke-linejoin="round" d="M 2240.589126 1339.690398 L 2262.365359 1347.576896 " stroke="#ffffff" stroke-width="6.836" stroke-opacity="1" stroke-miterlimit="10"/><path stroke-linecap="round" transform="matrix(0.0685237, 0, 0, -0.0683526, -29.259962, 254.118174)" fill="none" stroke-linejoin="round" d="M 2239.905056 1377.179837 L 2263.106435 1377.179837 " stroke="#ffffff" stroke-width="6.836" stroke-opacity="1" stroke-miterlimit="10"/><path stroke-linecap="round" transform="matrix(0.0685237, 0, 0, -0.0683526, -29.259962, 254.118174)" fill="none" stroke-linejoin="round" d="M 2294.972702 1434.614115 L 2294.972702 1411.468958 " stroke="#ffffff" stroke-width="6.836" stroke-opacity="1" stroke-miterlimit="10"/><path stroke-linecap="round" transform="matrix(0.0685237, 0, 0, -0.0683526, -29.259962, 254.118174)" fill="none" stroke-linejoin="round" d="M 2251.477242 1419.012565 L 2269.035043 1403.868203 " stroke="#ffffff" stroke-width="6.836" stroke-opacity="1" stroke-miterlimit="10"/><path fill="#305dae" d="M 131.945312 166.347656 L 134.183594 164.300781 L 130.648438 160.441406 L 132.160156 159.0625 L 126.90625 158.601562 L 126.894531 163.871094 L 128.410156 162.488281 L 131.945312 166.347656 " fill-opacity="1" fill-rule="nonzero"/><path fill="#f89c2c" d="M 168.734375 175.667969 L 168.734375 180.277344 L 168.761719 180.277344 C 169.359375 184.890625 179.308594 188.5625 191.492188 188.5625 C 203.683594 188.5625 213.632812 184.890625 214.230469 180.277344 L 214.257812 180.277344 L 214.257812 175.667969 L 168.734375 175.667969 " fill-opacity="1" fill-rule="nonzero"/><path fill="#fbbf36" d="M 214.257812 175.394531 C 214.257812 180.210938 204.070312 184.113281 191.492188 184.113281 C 178.925781 184.113281 168.734375 180.210938 168.734375 175.394531 C 168.734375 170.578125 178.925781 166.675781 191.492188 166.675781 C 204.070312 166.675781 214.257812 170.578125 214.257812 175.394531 " fill-opacity="1" fill-rule="nonzero"/><path fill="#f89c2c" d="M 206.101562 175.394531 C 206.101562 178.488281 199.5625 180.992188 191.492188 180.992188 C 183.429688 180.992188 176.890625 178.488281 176.890625 175.394531 C 176.890625 172.304688 183.429688 169.800781 191.492188 169.800781 C 199.5625 169.800781 206.101562 172.304688 206.101562 175.394531 " fill-opacity="1" fill-rule="nonzero"/><path fill="#f89c2c" d="M 168.734375 168.777344 L 168.734375 173.382812 L 168.761719 173.382812 C 169.359375 177.992188 179.308594 181.660156 191.492188 181.660156 C 203.683594 181.660156 213.632812 177.992188 214.230469 173.382812 L 214.257812 173.382812 L 214.257812 168.777344 L 168.734375 168.777344 " fill-opacity="1" fill-rule="nonzero"/><path fill="#fbbf36" d="M 214.257812 168.496094 C 214.257812 173.316406 204.070312 177.21875 191.492188 177.21875 C 178.925781 177.21875 168.734375 173.316406 168.734375 168.496094 C 168.734375 163.683594 178.925781 159.777344 191.492188 159.777344 C 204.070312 159.777344 214.257812 163.683594 214.257812 168.496094 " fill-opacity="1" fill-rule="nonzero"/><path fill="#f89c2c" d="M 206.101562 168.496094 C 206.101562 171.589844 199.5625 174.09375 191.492188 174.09375 C 183.429688 174.09375 176.894531 171.589844 176.894531 168.496094 C 176.894531 165.410156 183.429688 162.90625 191.492188 162.90625 C 199.5625 162.90625 206.101562 165.410156 206.101562 168.496094 " fill-opacity="1" fill-rule="nonzero"/><path fill="#f89c2c" d="M 168.734375 161.875 L 168.734375 166.484375 L 168.761719 166.484375 C 169.359375 171.09375 179.308594 174.765625 191.492188 174.765625 C 203.683594 174.765625 213.632812 171.09375 214.230469 166.484375 L 214.257812 166.484375 L 214.257812 161.875 L 168.734375 161.875 " fill-opacity="1" fill-rule="nonzero"/><path fill="#fbbf36" d="M 214.257812 161.601562 C 214.257812 166.417969 204.070312 170.320312 191.492188 170.320312 C 178.925781 170.320312 168.734375 166.417969 168.734375 161.601562 C 168.734375 156.785156 178.925781 152.882812 191.492188 152.882812 C 204.070312 152.882812 214.257812 156.785156 214.257812 161.601562 " fill-opacity="1" fill-rule="nonzero"/><path fill="#f89c2c" d="M 206.101562 161.601562 C 206.101562 164.691406 199.5625 167.199219 191.492188 167.199219 C 183.429688 167.199219 176.894531 164.691406 176.894531 161.601562 C 176.894531 158.511719 183.429688 156.007812 191.492188 156.007812 C 199.5625 156.007812 206.101562 158.511719 206.101562 161.601562 " fill-opacity="1" fill-rule="nonzero"/><path fill="#f89c2c" d="M 168.734375 154.980469 L 168.734375 159.589844 L 168.761719 159.589844 C 169.359375 164.199219 179.308594 167.867188 191.492188 167.867188 C 203.683594 167.867188 213.632812 164.199219 214.230469 159.589844 L 214.257812 159.589844 L 214.257812 154.980469 L 168.734375 154.980469 " fill-opacity="1" fill-rule="nonzero"/><path fill="#fbbf36" d="M 214.257812 154.707031 C 214.257812 159.519531 204.070312 163.425781 191.492188 163.425781 C 178.925781 163.425781 168.734375 159.519531 168.734375 154.707031 C 168.734375 149.886719 178.925781 145.984375 191.492188 145.984375 C 204.070312 145.984375 214.257812 149.886719 214.257812 154.707031 " fill-opacity="1" fill-rule="nonzero"/><path fill="#f89c2c" d="M 206.101562 154.707031 C 206.101562 157.796875 199.5625 160.300781 191.492188 160.300781 C 183.429688 160.300781 176.894531 157.796875 176.894531 154.707031 C 176.894531 151.617188 183.429688 149.109375 191.492188 149.109375 C 199.5625 149.109375 206.101562 151.617188 206.101562 154.707031 " fill-opacity="1" fill-rule="nonzero"/><path fill="#305dae" d="M 207.835938 153.988281 L 175.160156 153.988281 L 175.160156 132.480469 L 207.835938 132.480469 L 207.835938 153.988281 " fill-opacity="1" fill-rule="nonzero"/><path fill="#59caf5" d="M 205.566406 151.195312 L 177.367188 151.195312 L 177.367188 150.230469 L 205.566406 150.230469 L 205.566406 151.195312 " fill-opacity="1" fill-rule="nonzero"/><path fill="#fbbf36" d="M 205.566406 148.886719 L 177.367188 148.886719 L 177.367188 147.929688 L 205.566406 147.929688 L 205.566406 148.886719 " fill-opacity="1" fill-rule="nonzero"/><path fill="#59caf5" d="M 204.257812 141.609375 L 196.320312 141.609375 L 196.320312 136.304688 L 204.257812 136.304688 L 204.257812 141.609375 " fill-opacity="1" fill-rule="nonzero"/><path fill="#fbbf36" d="M 191.160156 138.617188 L 178.617188 138.617188 L 178.617188 137.578125 L 191.160156 137.578125 L 191.160156 138.617188 " fill-opacity="1" fill-rule="nonzero"/><path fill="#fbbf36" d="M 191.160156 140.824219 L 178.617188 140.824219 L 178.617188 139.789062 L 191.160156 139.789062 L 191.160156 140.824219 " fill-opacity="1" fill-rule="nonzero"/><path fill="#ef316b" d="M 158.25 142.988281 C 156.625 142.988281 155.3125 141.675781 155.3125 140.0625 C 155.3125 138.445312 156.625 137.136719 158.25 137.136719 C 159.871094 137.136719 161.183594 138.445312 161.183594 140.0625 C 161.183594 141.675781 159.871094 142.988281 158.25 142.988281 Z M 177.886719 141.429688 L 166.496094 133.507812 L 150.085938 133.507812 L 138.460938 141.476562 L 138.460938 188.582031 L 177.886719 188.582031 L 177.886719 141.429688 " fill-opacity="1" fill-rule="nonzero"/><path fill="#ffffff" d="M 167.402344 169.570312 C 167.402344 168.96875 167.375 168.421875 167.324219 167.921875 C 167.269531 167.417969 167.179688 166.988281 167.050781 166.625 C 166.925781 166.265625 166.753906 165.980469 166.546875 165.773438 C 166.335938 165.5625 166.074219 165.460938 165.753906 165.460938 C 165.433594 165.460938 165.167969 165.5625 164.960938 165.773438 C 164.753906 165.980469 164.585938 166.265625 164.457031 166.625 C 164.328125 166.988281 164.238281 167.417969 164.183594 167.921875 C 164.128906 168.421875 164.101562 168.96875 164.101562 169.570312 C 164.101562 170.152344 164.128906 170.699219 164.183594 171.207031 C 164.238281 171.710938 164.328125 172.144531 164.457031 172.507812 C 164.585938 172.871094 164.753906 173.15625 164.960938 173.363281 C 165.167969 173.570312 165.433594 173.675781 165.753906 173.675781 C 166.074219 173.675781 166.335938 173.570312 166.546875 173.363281 C 166.753906 173.15625 166.925781 172.871094 167.050781 172.507812 C 167.179688 172.144531 167.269531 171.710938 167.324219 171.207031 C 167.375 170.699219 167.402344 170.152344 167.402344 169.570312 Z M 160.609375 169.570312 C 160.609375 168.398438 160.734375 167.375 160.988281 166.507812 C 161.238281 165.636719 161.589844 164.917969 162.042969 164.339844 C 162.5 163.765625 163.039062 163.335938 163.671875 163.054688 C 164.300781 162.773438 164.992188 162.632812 165.753906 162.632812 C 166.511719 162.632812 167.203125 162.773438 167.835938 163.054688 C 168.464844 163.335938 169.007812 163.765625 169.460938 164.339844 C 169.917969 164.917969 170.265625 165.636719 170.519531 166.507812 C 170.769531 167.375 170.894531 168.398438 170.894531 169.570312 C 170.894531 170.726562 170.769531 171.746094 170.519531 172.613281 C 170.265625 173.480469 169.917969 174.203125 169.460938 174.777344 C 169.007812 175.351562 168.464844 175.785156 167.835938 176.074219 C 167.203125 176.359375 166.511719 176.503906 165.753906 176.503906 C 164.992188 176.503906 164.300781 176.359375 163.671875 176.074219 C 163.039062 175.785156 162.5 175.351562 162.042969 174.777344 C 161.589844 174.203125 161.238281 173.480469 160.988281 172.613281 C 160.734375 171.746094 160.609375 170.726562 160.609375 169.570312 Z M 166.890625 155.917969 L 151.253906 176.824219 L 149.171875 175.222656 L 164.804688 154.320312 Z M 151.992188 161.417969 C 151.992188 160.820312 151.964844 160.273438 151.910156 159.773438 C 151.855469 159.269531 151.765625 158.835938 151.636719 158.476562 C 151.511719 158.113281 151.34375 157.828125 151.132812 157.621094 C 150.925781 157.414062 150.660156 157.3125 150.339844 157.3125 C 150.019531 157.3125 149.753906 157.414062 149.546875 157.621094 C 149.339844 157.828125 149.171875 158.113281 149.042969 158.476562 C 148.914062 158.835938 148.824219 159.269531 148.769531 159.773438 C 148.71875 160.273438 148.691406 160.820312 148.691406 161.417969 C 148.691406 162.003906 148.71875 162.550781 148.769531 163.054688 C 148.824219 163.5625 148.914062 163.996094 149.042969 164.355469 C 149.171875 164.71875 149.339844 165.003906 149.546875 165.214844 C 149.753906 165.417969 150.019531 165.523438 150.339844 165.523438 C 150.660156 165.523438 150.925781 165.417969 151.132812 165.214844 C 151.34375 165.003906 151.511719 164.71875 151.636719 164.355469 C 151.765625 163.996094 151.855469 163.5625 151.910156 163.054688 C 151.964844 162.550781 151.992188 162.003906 151.992188 161.417969 Z M 145.195312 161.417969 C 145.195312 160.246094 145.324219 159.226562 145.574219 158.355469 C 145.824219 157.488281 146.175781 156.765625 146.632812 156.191406 C 147.085938 155.613281 147.628906 155.1875 148.257812 154.90625 C 148.886719 154.621094 149.582031 154.480469 150.339844 154.480469 C 151.097656 154.480469 151.792969 154.621094 152.425781 154.90625 C 153.054688 155.1875 153.597656 155.613281 154.050781 156.191406 C 154.503906 156.765625 154.855469 157.488281 155.105469 158.355469 C 155.359375 159.226562 155.484375 160.246094 155.484375 161.417969 C 155.484375 162.578125 155.359375 163.59375 155.105469 164.460938 C 154.855469 165.332031 154.503906 166.050781 154.050781 166.625 C 153.597656 167.203125 153.054688 167.632812 152.425781 167.921875 C 151.792969 168.210938 151.097656 168.355469 150.339844 168.355469 C 149.582031 168.355469 148.886719 168.210938 148.257812 167.921875 C 147.628906 167.632812 147.085938 167.203125 146.632812 166.625 C 146.175781 166.050781 145.824219 165.332031 145.574219 164.460938 C 145.324219 163.59375 145.195312 162.578125 145.195312 161.417969 " fill-opacity="1" fill-rule="nonzero"/><path fill="#ffffff" d="M 158.171875 142.996094 C 157.488281 142.996094 156.933594 142.679688 156.933594 142.679688 L 156.933594 116.890625 C 156.933594 116.207031 157.488281 115.65625 158.171875 115.65625 C 158.859375 115.65625 159.414062 116.207031 159.414062 116.890625 L 159.414062 142.75 C 159.058594 142.929688 158.859375 142.996094 158.171875 142.996094 " fill-opacity="1" fill-rule="nonzero"/><g clip-path="url(#35531799c1)"><path stroke-linecap="round" transform="matrix(0.0685237, 0, 0, -0.0683526, -29.259962, 254.118174)" fill="none" stroke-linejoin="round" d="M 770.693394 957.309549 L 3701.876974 957.309549 " stroke="#305dae" stroke-width="18.993999" stroke-opacity="1" stroke-miterlimit="10"/></g><path stroke-linecap="round" transform="matrix(0.0685237, 0, 0, -0.0683526, -29.259962, 254.118174)" fill="none" stroke-linejoin="round" d="M 1189.629354 799.751038 L 3471.972399 799.751038 " stroke="#305dae" stroke-width="18.993999" stroke-opacity="1" stroke-miterlimit="10"/><path stroke-linecap="round" transform="matrix(0.0685237, 0, 0, -0.0683526, -29.259962, 254.118174)" fill="none" stroke-linejoin="round" d="M 1364.580295 677.681767 L 2901.343883 677.681767 " stroke="#305dae" stroke-width="18.993999" stroke-opacity="1" stroke-miterlimit="10"/><path stroke-linecap="round" transform="matrix(0.0685237, 0, 0, -0.0683526, -29.259962, 254.118174)" fill="none" stroke-linejoin="round" d="M 2275.761732 523.780762 L 3533.253683 523.780762 " stroke="#305dae" stroke-width="18.993999" stroke-opacity="1" stroke-miterlimit="10"/><g clip-path="url(#0c220a5096)"><path stroke-linecap="round" transform="matrix(0.0685237, 0, 0, -0.0683526, -29.259962, 254.118174)" fill="none" stroke-linejoin="round" d="M 1001.624075 440.458197 L 2061.932805 440.458197 " stroke="#305dae" stroke-width="18.993999" stroke-opacity="1" stroke-miterlimit="10"/></g><path fill="#ef316b" d="M 54.554688 188.285156 C 57.09375 187.488281 56.253906 184.746094 55.34375 184.734375 C 54.667969 184.726562 53.878906 184.714844 52.921875 184.714844 C 51.5 184.714844 50.480469 184.054688 50.574219 184.054688 L 46.582031 184.054688 C 46.488281 184.132812 46.394531 184.289062 46.347656 184.554688 L 46.332031 188.285156 L 54.554688 188.285156 " fill-opacity="1" fill-rule="nonzero"/><path fill="#f57384" d="M 54.671875 129.253906 L 44.058594 129.253906 C 45.609375 133.625 46.558594 179.09375 46.558594 184.054688 L 50.574219 184.054688 C 50.574219 184.054688 54.671875 134.613281 54.671875 129.253906 " fill-opacity="1" fill-rule="nonzero"/><path fill="#ef316b" d="M 45.160156 188.285156 C 47.703125 187.488281 46.867188 184.746094 45.953125 184.734375 C 45.28125 184.726562 44.492188 184.714844 43.53125 184.714844 C 42.109375 184.714844 41.09375 184.054688 41.1875 184.054688 L 37.199219 184.054688 C 37.097656 184.132812 37.007812 184.289062 36.957031 184.554688 L 36.933594 188.285156 L 45.160156 188.285156 " fill-opacity="1" fill-rule="nonzero"/><path fill="#f57384" d="M 45.285156 129.253906 L 34.664062 129.253906 C 34.664062 133.734375 37.167969 179.09375 37.167969 184.054688 L 41.1875 184.054688 C 41.1875 184.054688 42.804688 135.351562 45.285156 129.253906 " fill-opacity="1" fill-rule="nonzero"/><path fill="#305dae" d="M 54.28125 159.976562 C 55.335938 146.566406 54.671875 132.023438 54.671875 129.253906 L 44.058594 129.253906 C 44.621094 132.773438 44.945312 145.351562 44.773438 159.976562 L 54.28125 159.976562 " fill-opacity="1" fill-rule="nonzero"/><path fill="#305dae" d="M 43.832031 159.976562 C 44.785156 146.566406 44.058594 134.664062 45.285156 129.253906 L 34.664062 129.253906 C 34.664062 131.703125 34.175781 146.132812 34.664062 159.738281 L 43.832031 159.976562 " fill-opacity="1" fill-rule="nonzero"/><path fill="#ef316b" d="M 55.140625 129.960938 C 54.144531 115.847656 54.222656 103.421875 50.667969 94.519531 C 49.96875 92.785156 49.089844 91.273438 47.445312 90.773438 C 46 90.339844 45.417969 90.40625 43.574219 89.566406 C 43.574219 89.566406 41.226562 89.171875 38.574219 92.855469 C 34.960938 97.890625 33.691406 110.929688 34 129.960938 L 55.140625 129.960938 " fill-opacity="1" fill-rule="nonzero"/><path fill="#305dae" d="M 70.183594 109.214844 L 71.222656 109.542969 L 73.746094 101.527344 L 72.707031 101.207031 L 70.183594 109.214844 " fill-opacity="1" fill-rule="nonzero"/><path fill="#f57384" d="M 40.421875 94.710938 C 41.601562 93.960938 43.167969 94.3125 43.917969 95.496094 L 55.097656 114.113281 L 67.132812 109.339844 C 67.898438 109.078125 68.753906 109.421875 69.121094 110.167969 C 69.515625 110.96875 68.929688 110.992188 68.121094 111.386719 L 55.140625 118.78125 C 54.074219 119.300781 52.75 118.949219 52.105469 117.921875 L 52.023438 117.792969 L 39.625 98.203125 C 38.878906 97.019531 39.230469 95.453125 40.421875 94.710938 " fill-opacity="1" fill-rule="nonzero"/><path fill="#ee2657" d="M 41.917969 103.785156 L 39.277344 98.292969 C 38.46875 96.898438 38.945312 95.113281 40.34375 94.3125 C 41.738281 93.503906 43.527344 93.980469 44.332031 95.375 L 47.921875 100.625 L 41.917969 103.785156 " fill-opacity="1" fill-rule="nonzero"/><path fill="#f57384" d="M 43.269531 84.632812 L 43.269531 90.117188 C 43.269531 91.175781 45.332031 92.035156 46.394531 92.035156 C 47.121094 92.035156 47.53125 91.664062 47.53125 90.117188 L 47.53125 84.632812 L 43.269531 84.632812 " fill-opacity="1" fill-rule="nonzero"/><path fill="#f57384" d="M 51.621094 81.953125 C 51.289062 81.246094 51.144531 80.453125 51.101562 79.734375 C 51.105469 79.6875 51.109375 79.660156 51.109375 79.660156 C 51.234375 78.726562 51.992188 77.328125 51.757812 76.644531 C 51.167969 74.867188 48.652344 73.828125 46.210938 73.5 C 43.097656 73.078125 40.707031 75.003906 40.105469 79.433594 C 39.792969 81.730469 41.175781 84.25 42.792969 84.761719 C 44.019531 85.15625 46.382812 86.003906 46.605469 86.085938 C 48.101562 86.617188 48.855469 86.714844 49.5 85.664062 C 50.011719 84.832031 50.0625 84.753906 50.558594 83.734375 C 50.8125 83.214844 51 82.765625 51.332031 82.8125 C 52.136719 82.917969 51.710938 82.128906 51.621094 81.953125 " fill-opacity="1" fill-rule="nonzero"/><path fill="#282321" d="M 49.347656 73.09375 C 47.9375 72.515625 44.71875 71.5625 42.078125 73.703125 C 38.074219 76.941406 39.191406 82.15625 40.105469 83.589844 C 40.921875 84.871094 42.929688 85.023438 42.957031 84.816406 C 43.019531 84.359375 43.046875 84.167969 43.144531 83.4375 C 43.1875 83.117188 43.3125 83.261719 42.78125 82.476562 C 41.800781 81.050781 42.632812 80.265625 42.941406 80.308594 C 43.519531 80.386719 43.453125 81.484375 44.828125 79.375 C 45.714844 78.011719 46.359375 77.648438 48.488281 77.902344 C 49.828125 78.0625 50.914062 77.492188 51.679688 77.28125 C 55.105469 76.34375 51.820312 74.117188 49.347656 73.09375 " fill-opacity="1" fill-rule="nonzero"/><path fill="#f57384" d="M 67.234375 109.179688 L 66.742188 109.453125 L 67.890625 111.511719 L 68.390625 111.238281 C 69.066406 111.398438 70.6875 110.84375 71.410156 110.214844 C 72.546875 109.230469 72.855469 107.667969 72.238281 107.121094 C 71.605469 106.558594 70.625 107.03125 69.5625 107.878906 C 69.390625 108.023438 69.179688 108.042969 69.308594 107.746094 C 69.5625 107.144531 69.546875 106.789062 69.351562 106.707031 C 69.0625 106.59375 67.625 107.90625 67.234375 109.179688 " fill-opacity="1" fill-rule="nonzero"/><path fill="#ef316b" d="M 213.628906 46.691406 C 214.335938 45.175781 214.734375 43.488281 214.734375 41.707031 C 214.734375 35.171875 209.417969 29.867188 202.863281 29.867188 C 196.3125 29.867188 191 35.171875 191 41.707031 C 191 43.515625 191.402344 45.222656 192.128906 46.753906 L 192.125 46.753906 L 192.136719 46.78125 C 192.449219 47.429688 202.816406 64.78125 202.816406 64.78125 C 202.816406 64.78125 213.285156 47.429688 213.628906 46.695312 L 213.628906 46.691406 " fill-opacity="1" fill-rule="nonzero"/><path fill="#ffffff" d="M 209.929688 41.628906 C 209.929688 45.675781 206.636719 48.960938 202.578125 48.960938 C 198.519531 48.960938 195.226562 45.675781 195.226562 41.628906 C 195.226562 37.578125 198.519531 34.296875 202.578125 34.296875 C 206.636719 34.296875 209.929688 37.578125 209.929688 41.628906 " fill-opacity="1" fill-rule="nonzero"/><path fill="#ffffff" d="M 205.753906 90.097656 C 205.753906 99.003906 198.515625 106.226562 189.585938 106.226562 C 180.65625 106.226562 173.421875 99.003906 173.421875 90.097656 C 173.421875 81.191406 180.65625 73.972656 189.585938 73.972656 C 198.515625 73.972656 205.753906 81.191406 205.753906 90.097656 " fill-opacity="1" fill-rule="nonzero"/><path fill="#f89c2c" d="M 200.835938 93.066406 L 180.636719 93.066406 L 180.636719 82.980469 L 200.835938 82.980469 L 200.835938 93.066406 " fill-opacity="1" fill-rule="nonzero"/><path fill="#fbbf36" d="M 199.644531 92.089844 L 181.828125 92.089844 L 181.828125 83.953125 L 199.644531 83.953125 L 199.644531 92.089844 " fill-opacity="1" fill-rule="nonzero"/><path fill="#f89c2c" d="M 193.285156 88.019531 C 193.285156 89.429688 192.144531 90.566406 190.734375 90.566406 C 189.324219 90.566406 188.183594 89.429688 188.183594 88.019531 C 188.183594 86.617188 189.324219 85.476562 190.734375 85.476562 C 192.144531 85.476562 193.285156 86.617188 193.285156 88.019531 " fill-opacity="1" fill-rule="nonzero"/><path fill="#f89c2c" d="M 197.019531 88.019531 C 197.019531 88.558594 196.585938 88.988281 196.050781 88.988281 C 195.511719 88.988281 195.078125 88.558594 195.078125 88.019531 C 195.078125 87.488281 195.511719 87.050781 196.050781 87.050781 C 196.585938 87.050781 197.019531 87.488281 197.019531 88.019531 " fill-opacity="1" fill-rule="nonzero"/><path fill="#f89c2c" d="M 186.394531 88.019531 C 186.394531 88.558594 185.960938 88.988281 185.421875 88.988281 C 184.886719 88.988281 184.449219 88.558594 184.449219 88.019531 C 184.449219 87.488281 184.886719 87.050781 185.421875 87.050781 C 185.960938 87.050781 186.394531 87.488281 186.394531 88.019531 " fill-opacity="1" fill-rule="nonzero"/><path fill="#489ada" d="M 194.753906 97.792969 L 177.863281 97.792969 L 177.863281 86.339844 L 194.753906 86.339844 L 194.753906 97.792969 " fill-opacity="1" fill-rule="nonzero"/><path fill="#305dae" d="M 193.320312 96.714844 L 179.179688 96.714844 L 179.179688 87.417969 L 193.320312 87.417969 L 193.320312 96.714844 " fill-opacity="1" fill-rule="nonzero"/><path fill="#59caf5" d="M 195.753906 93.671875 L 191.460938 93.671875 L 191.460938 90.414062 L 195.753906 90.414062 L 195.753906 93.671875 " fill-opacity="1" fill-rule="nonzero"/><path fill="#305dae" d="M 193.445312 92.042969 C 193.445312 92.433594 193.125 92.75 192.734375 92.75 C 192.34375 92.75 192.027344 92.433594 192.027344 92.042969 C 192.027344 91.65625 192.34375 91.335938 192.734375 91.335938 C 193.125 91.335938 193.445312 91.65625 193.445312 92.042969 " fill-opacity="1" fill-rule="nonzero"/><path fill="#ffffff" d="M 185.71875 49.410156 C 185.71875 58.316406 178.480469 65.535156 169.550781 65.535156 C 160.625 65.535156 153.386719 58.316406 153.386719 49.410156 C 153.386719 40.503906 160.625 33.28125 169.550781 33.28125 C 178.480469 33.28125 185.71875 40.503906 185.71875 49.410156 " fill-opacity="1" fill-rule="nonzero"/><path fill="#2c549e" d="M 169.289062 46.128906 C 169.289062 46.128906 171.53125 39.050781 174.332031 39.414062 C 175.609375 39.578125 177.761719 40.871094 177.136719 43.71875 C 176.820312 45.175781 175.058594 46.265625 170.320312 47.347656 L 169.289062 46.128906 " fill-opacity="1" fill-rule="nonzero"/><path fill="#23437e" d="M 169.960938 45.882812 C 169.960938 45.882812 172.144531 39.472656 174.3125 40.5625 C 174.878906 40.847656 174.898438 41.949219 173.234375 43.832031 C 171.117188 46.230469 169.960938 45.882812 169.960938 45.882812 " fill-opacity="1" fill-rule="nonzero"/><path fill="#2c549e" d="M 169.683594 46.160156 C 169.683594 46.160156 167.515625 39.058594 164.710938 39.390625 C 163.4375 39.542969 161.269531 40.8125 161.863281 43.667969 C 162.164062 45.125 163.914062 46.234375 168.640625 47.367188 L 169.683594 46.160156 " fill-opacity="1" fill-rule="nonzero"/><path fill="#23437e" d="M 169.015625 45.90625 C 169.015625 45.90625 166.898438 39.472656 164.71875 40.539062 C 164.152344 40.820312 164.121094 41.921875 165.765625 43.820312 C 167.859375 46.242188 169.015625 45.90625 169.015625 45.90625 " fill-opacity="1" fill-rule="nonzero"/><path fill="#489ada" d="M 179.460938 57.300781 L 159.644531 57.300781 L 159.644531 48.425781 L 179.460938 48.425781 L 179.460938 57.300781 " fill-opacity="1" fill-rule="nonzero"/><path fill="#305dae" d="M 180.027344 46.28125 L 159.078125 46.28125 L 159.078125 49.117188 L 180.027344 49.117188 L 180.027344 46.28125 " fill-opacity="1" fill-rule="nonzero"/><path fill="#ffffff" d="M 125.839844 41.371094 C 125.839844 50.28125 118.601562 57.5 109.675781 57.5 C 100.746094 57.5 93.507812 50.28125 93.507812 41.371094 C 93.507812 32.464844 100.746094 25.246094 109.675781 25.246094 C 118.601562 25.246094 125.839844 32.464844 125.839844 41.371094 " fill-opacity="1" fill-rule="nonzero"/><path fill="#fbbf36" d="M 122.484375 36.945312 L 118.960938 41.285156 L 113.664062 37.007812 L 117.1875 32.667969 L 122.484375 36.945312 " fill-opacity="1" fill-rule="nonzero"/><path fill="#fbbf36" d="M 96.863281 36.945312 L 100.382812 41.285156 L 105.679688 37.007812 L 102.160156 32.667969 L 96.863281 36.945312 " fill-opacity="1" fill-rule="nonzero"/><path fill="#fbbf36" d="M 117.179688 52.035156 L 102.132812 52.035156 L 102.132812 32.667969 L 117.179688 32.667969 L 117.179688 52.035156 " fill-opacity="1" fill-rule="nonzero"/><path fill="#f89c2c" d="M 106.128906 32.667969 L 109.753906 35.601562 L 113.378906 32.667969 Z M 106.128906 32.667969 " fill-opacity="1" fill-rule="nonzero"/><path fill="#ffffff" d="M 89.90625 64.574219 C 89.90625 73.484375 82.667969 80.703125 73.738281 80.703125 C 64.8125 80.703125 57.574219 73.484375 57.574219 64.574219 C 57.574219 55.671875 64.8125 48.449219 73.738281 48.449219 C 82.667969 48.449219 89.90625 55.671875 89.90625 64.574219 " fill-opacity="1" fill-rule="nonzero"/><path fill="#fbbf36" d="M 84.554688 72.714844 L 62.707031 72.714844 L 62.707031 57.578125 L 84.554688 57.578125 L 84.554688 72.714844 " fill-opacity="1" fill-rule="nonzero"/><path fill="#ef316b" d="M 73.621094 64.632812 C 73.621094 64.632812 75.410156 59.589844 77.421875 59.921875 C 78.332031 60.070312 79.851562 61.054688 79.332031 63.089844 C 79.066406 64.132812 77.769531 64.875 74.332031 65.535156 L 73.621094 64.632812 " fill-opacity="1" fill-rule="nonzero"/><path fill="#c62751" d="M 74.109375 64.476562 C 74.109375 64.476562 75.839844 59.90625 77.375 60.75 C 77.777344 60.96875 77.761719 61.761719 76.519531 63.078125 C 74.929688 64.753906 74.109375 64.476562 74.109375 64.476562 " fill-opacity="1" fill-rule="nonzero"/><path fill="#ef316b" d="M 72.683594 65.316406 C 72.683594 65.316406 70.117188 60.617188 71.703125 59.34375 C 72.425781 58.765625 74.171875 58.296875 75.347656 60.042969 C 75.945312 60.933594 75.636719 62.390625 73.832031 65.390625 L 72.683594 65.316406 " fill-opacity="1" fill-rule="nonzero"/><path fill="#c62751" d="M 72.890625 64.84375 C 72.890625 64.84375 70.640625 60.511719 72.292969 59.929688 C 72.722656 59.777344 73.304688 60.320312 73.457031 62.121094 C 73.648438 64.421875 72.890625 64.84375 72.890625 64.84375 " fill-opacity="1" fill-rule="nonzero"/><path fill="#ef316b" d="M 73.488281 64.65625 C 73.488281 64.65625 70.328125 60.328125 68.496094 61.21875 C 67.664062 61.621094 66.492188 62.996094 67.574219 64.800781 C 68.125 65.722656 69.578125 66.066406 73.066406 65.722656 L 73.488281 64.65625 " fill-opacity="1" fill-rule="nonzero"/><path fill="#c62751" d="M 72.972656 64.640625 C 72.972656 64.640625 70.003906 60.761719 68.773438 62 C 68.453125 62.324219 68.695312 63.082031 70.265625 63.988281 C 72.265625 65.140625 72.972656 64.640625 72.972656 64.640625 " fill-opacity="1" fill-rule="nonzero"/><path fill="#ef316b" d="M 73.738281 65.777344 C 73.738281 65.777344 77.171875 69.890625 78.941406 68.882812 C 79.746094 68.421875 80.828125 66.976562 79.632812 65.246094 C 79.019531 64.363281 77.546875 64.117188 74.089844 64.6875 L 73.738281 65.777344 " fill-opacity="1" fill-rule="nonzero"/><path fill="#c62751" d="M 74.25 65.757812 C 74.25 65.757812 77.464844 69.441406 78.613281 68.121094 C 78.914062 67.777344 78.621094 67.039062 76.996094 66.234375 C 74.925781 65.210938 74.25 65.757812 74.25 65.757812 " fill-opacity="1" fill-rule="nonzero"/><path fill="#ef316b" d="M 72.90625 64.992188 C 72.90625 64.992188 71.128906 70.039062 72.902344 71.039062 C 73.710938 71.496094 75.507812 71.675781 76.382812 69.765625 C 76.832031 68.792969 76.289062 67.402344 74.027344 64.734375 L 72.90625 64.992188 " fill-opacity="1" fill-rule="nonzero"/><path fill="#c62751" d="M 73.1875 65.425781 C 73.1875 65.425781 71.664062 70.0625 73.390625 70.371094 C 73.839844 70.449219 74.324219 69.820312 74.183594 68.015625 C 74 65.722656 73.1875 65.425781 73.1875 65.425781 " fill-opacity="1" fill-rule="nonzero"/><path fill="#ef316b" d="M 73.738281 65.714844 C 73.738281 65.714844 71.234375 70.445312 69.292969 69.832031 C 68.410156 69.550781 67.054688 68.359375 67.863281 66.417969 C 68.273438 65.425781 69.664062 64.878906 73.164062 64.71875 L 73.738281 65.714844 " fill-opacity="1" fill-rule="nonzero"/><path fill="#c62751" d="M 73.226562 65.804688 C 73.226562 65.804688 70.855469 70.070312 69.457031 69.019531 C 69.089844 68.742188 69.222656 67.960938 70.644531 66.839844 C 72.457031 65.410156 73.226562 65.804688 73.226562 65.804688 " fill-opacity="1" fill-rule="nonzero"/><path fill="#c62751" d="M 74.640625 65.09375 C 74.640625 65.652344 74.179688 66.109375 73.621094 66.109375 C 73.058594 66.109375 72.601562 65.652344 72.601562 65.09375 C 72.601562 64.53125 73.058594 64.078125 73.621094 64.078125 C 74.179688 64.078125 74.640625 64.53125 74.640625 65.09375 " fill-opacity="1" fill-rule="nonzero"/><path fill="#ef316b" d="M 95.875 23.503906 L 91.851562 27.515625 L 87.828125 23.503906 L 91.851562 19.496094 L 95.875 23.503906 " fill-opacity="1" fill-rule="nonzero"/><path fill="#ffffff" d="M 87.269531 20.066406 C 85.605469 20.066406 84.257812 21.414062 84.257812 23.070312 C 84.257812 24.726562 85.605469 26.074219 87.269531 26.074219 C 88.925781 26.074219 90.277344 24.726562 90.277344 23.070312 C 90.277344 21.414062 88.925781 20.066406 87.269531 20.066406 Z M 87.269531 26.386719 C 85.433594 26.386719 83.941406 24.898438 83.941406 23.070312 C 83.941406 21.242188 85.433594 19.753906 87.269531 19.753906 C 89.097656 19.753906 90.59375 21.242188 90.59375 23.070312 C 90.59375 24.898438 89.097656 26.386719 87.269531 26.386719 " fill-opacity="1" fill-rule="nonzero"/><path fill="#ef316b" d="M 44.0625 24.007812 L 39.398438 28.660156 L 34.738281 24.007812 L 39.398438 19.359375 L 44.0625 24.007812 " fill-opacity="1" fill-rule="nonzero"/><path fill="#ffffff" d="M 34.085938 20.023438 C 32.164062 20.023438 30.59375 21.585938 30.59375 23.503906 C 30.59375 25.425781 32.164062 26.988281 34.085938 26.988281 C 36.011719 26.988281 37.578125 25.425781 37.578125 23.503906 C 37.578125 21.585938 36.011719 20.023438 34.085938 20.023438 Z M 34.085938 27.351562 C 31.960938 27.351562 30.234375 25.625 30.234375 23.503906 C 30.234375 21.386719 31.960938 19.664062 34.085938 19.664062 C 36.210938 19.664062 37.9375 21.386719 37.9375 23.503906 C 37.9375 25.625 36.210938 27.351562 34.085938 27.351562 " fill-opacity="1" fill-rule="nonzero"/><path fill="#ef316b" d="M 179.785156 110.933594 L 175.765625 114.945312 L 171.746094 110.933594 L 175.765625 106.921875 L 179.785156 110.933594 " fill-opacity="1" fill-rule="nonzero"/><path fill="#ffffff" d="M 171.179688 107.492188 C 169.519531 107.492188 168.167969 108.839844 168.167969 110.496094 C 168.167969 112.15625 169.519531 113.5 171.179688 113.5 C 172.84375 113.5 174.191406 112.15625 174.191406 110.496094 C 174.191406 108.839844 172.84375 107.492188 171.179688 107.492188 Z M 171.179688 113.8125 C 169.347656 113.8125 167.855469 112.324219 167.855469 110.496094 C 167.855469 108.667969 169.347656 107.179688 171.179688 107.179688 C 173.011719 107.179688 174.503906 108.667969 174.503906 110.496094 C 174.503906 112.324219 173.011719 113.8125 171.179688 113.8125 " fill-opacity="1" fill-rule="nonzero"/><path fill="#ef316b" d="M 183.328125 25.246094 L 179.304688 29.257812 L 175.285156 25.246094 L 179.304688 21.234375 L 183.328125 25.246094 " fill-opacity="1" fill-rule="nonzero"/><path fill="#ffffff" d="M 174.722656 21.808594 C 173.0625 21.808594 171.710938 23.15625 171.710938 24.8125 C 171.710938 26.464844 173.0625 27.816406 174.722656 27.816406 C 176.382812 27.816406 177.730469 26.464844 177.730469 24.8125 C 177.730469 23.15625 176.382812 21.808594 174.722656 21.808594 Z M 174.722656 28.125 C 172.890625 28.125 171.398438 26.640625 171.398438 24.8125 C 171.398438 22.984375 172.890625 21.496094 174.722656 21.496094 C 176.554688 21.496094 178.046875 22.984375 178.046875 24.8125 C 178.046875 26.640625 176.554688 28.125 174.722656 28.125 " fill-opacity="1" fill-rule="nonzero"/><path fill="#fbbf36" d="M 27.957031 55.996094 C 27.957031 58.152344 26.207031 59.898438 24.046875 59.898438 C 21.886719 59.898438 20.132812 58.152344 20.132812 55.996094 C 20.132812 53.84375 21.886719 52.09375 24.046875 52.09375 C 26.207031 52.09375 27.957031 53.84375 27.957031 55.996094 " fill-opacity="1" fill-rule="nonzero"/><path fill="#ffffff" d="M 18.253906 61.578125 L 25.207031 61.578125 L 25.207031 54.640625 L 18.253906 54.640625 Z M 25.59375 61.960938 L 17.867188 61.960938 L 17.867188 54.253906 L 25.59375 54.253906 L 25.59375 61.960938 " fill-opacity="1" fill-rule="nonzero"/><path fill="#fbbf36" d="M 200.140625 51.578125 C 200.140625 53.050781 198.945312 54.238281 197.472656 54.238281 C 196 54.238281 194.804688 53.050781 194.804688 51.578125 C 194.804688 50.109375 196 48.914062 197.472656 48.914062 C 198.945312 48.914062 200.140625 50.109375 200.140625 51.578125 " fill-opacity="1" fill-rule="nonzero"/><path fill="#ffffff" d="M 193.519531 55.386719 L 198.265625 55.386719 L 198.265625 50.652344 L 193.519531 50.652344 Z M 198.53125 55.648438 L 193.257812 55.648438 L 193.257812 50.390625 L 198.53125 50.390625 L 198.53125 55.648438 " fill-opacity="1" fill-rule="nonzero"/><path fill="#fbbf36" d="M 220.140625 30.128906 C 220.140625 31.597656 218.949219 32.792969 217.472656 32.792969 C 216 32.792969 214.804688 31.597656 214.804688 30.128906 C 214.804688 28.660156 216 27.46875 217.472656 27.46875 C 218.949219 27.46875 220.140625 28.660156 220.140625 30.128906 " fill-opacity="1" fill-rule="nonzero"/><path fill="#ffffff" d="M 213.523438 33.9375 L 218.265625 33.9375 L 218.265625 29.203125 L 213.523438 29.203125 Z M 218.527344 34.199219 L 213.257812 34.199219 L 213.257812 28.941406 L 218.527344 28.941406 L 218.527344 34.199219 " fill-opacity="1" fill-rule="nonzero"/><path fill="#305dae" d="M 82.910156 131.046875 L 76.476562 131.046875 L 76.476562 124.625 L 82.910156 124.625 L 82.910156 131.046875 " fill-opacity="1" fill-rule="nonzero"/><path fill="#ffffff" d="M 71.503906 123.753906 L 75.90625 128.144531 L 80.3125 123.753906 L 75.90625 119.359375 Z M 75.90625 128.65625 L 70.992188 123.753906 L 75.90625 118.847656 L 80.824219 123.753906 L 75.90625 128.65625 " fill-opacity="1" fill-rule="nonzero"/><path fill="#305dae" d="M 220.152344 116.308594 L 215.554688 116.308594 L 215.554688 111.71875 L 220.152344 111.71875 L 220.152344 116.308594 " fill-opacity="1" fill-rule="nonzero"/><path fill="#ffffff" d="M 212.003906 111.09375 L 215.148438 114.234375 L 218.296875 111.09375 L 215.148438 107.957031 Z M 215.148438 114.601562 L 211.636719 111.09375 L 215.148438 107.589844 L 218.664062 111.09375 L 215.148438 114.601562 " fill-opacity="1" fill-rule="nonzero"/><path fill="#305dae" d="M 48.542969 44.109375 C 48.542969 45.007812 47.8125 45.734375 46.910156 45.734375 C 46.011719 45.734375 45.285156 45.007812 45.285156 44.109375 C 45.285156 43.210938 46.011719 42.484375 46.910156 42.484375 C 47.8125 42.484375 48.542969 43.210938 48.542969 44.109375 " fill-opacity="1" fill-rule="nonzero"/><path fill="#305dae" d="M 80.046875 89.722656 C 80.046875 90.621094 79.316406 91.347656 78.414062 91.347656 C 77.515625 91.347656 76.789062 90.621094 76.789062 89.722656 C 76.789062 88.828125 77.515625 88.097656 78.414062 88.097656 C 79.316406 88.097656 80.046875 88.828125 80.046875 89.722656 " fill-opacity="1" fill-rule="nonzero"/><path fill="#305dae" d="M 15.964844 141.855469 C 15.964844 142.753906 15.234375 143.484375 14.335938 143.484375 C 13.433594 143.484375 12.707031 142.753906 12.707031 141.855469 C 12.707031 140.960938 13.433594 140.230469 14.335938 140.230469 C 15.234375 140.230469 15.964844 140.960938 15.964844 141.855469 " fill-opacity="1" fill-rule="nonzero"/><path fill="#305dae" d="M 164.804688 84.28125 C 164.804688 85.183594 164.074219 85.910156 163.171875 85.910156 C 162.273438 85.910156 161.546875 85.183594 161.546875 84.28125 C 161.546875 83.386719 162.273438 82.660156 163.171875 82.660156 C 164.074219 82.660156 164.804688 83.386719 164.804688 84.28125 " fill-opacity="1" fill-rule="nonzero"/><path fill="#305dae" d="M 219.960938 144.65625 C 219.960938 145.554688 219.230469 146.285156 218.328125 146.285156 C 217.429688 146.285156 216.699219 145.554688 216.699219 144.65625 C 216.699219 143.757812 217.429688 143.03125 218.328125 143.03125 C 219.230469 143.03125 219.960938 143.757812 219.960938 144.65625 " fill-opacity="1" fill-rule="nonzero"/><path fill="#305dae" d="M 218.328125 82.660156 C 218.328125 83.554688 217.597656 84.28125 216.699219 84.28125 C 215.800781 84.28125 215.070312 83.554688 215.070312 82.660156 C 215.070312 81.757812 215.800781 81.035156 216.699219 81.035156 C 217.597656 81.035156 218.328125 81.757812 218.328125 82.660156 " fill-opacity="1" fill-rule="nonzero"/><path fill="#305dae" d="M 142.085938 39.050781 C 142.085938 39.949219 141.351562 40.679688 140.453125 40.679688 C 139.554688 40.679688 138.824219 39.949219 138.824219 39.050781 C 138.824219 38.152344 139.554688 37.425781 140.453125 37.425781 C 141.351562 37.425781 142.085938 38.152344 142.085938 39.050781 " fill-opacity="1" fill-rule="nonzero"/><g clip-path="url(#18a8269a39)"><path fill="#ffffff" d="M 96.683594 19.09375 C 96.671875 14.65625 93.664062 10.925781 89.570312 9.804688 C 89.574219 9.691406 89.582031 9.574219 89.582031 9.457031 C 89.582031 4.125 85.246094 -0.195312 79.898438 -0.195312 C 76.605469 -0.195312 73.703125 1.441406 71.953125 3.941406 C 70.269531 2.285156 67.957031 1.261719 65.40625 1.261719 C 60.492188 1.261719 56.472656 5.050781 56.109375 9.855469 C 55.980469 9.851562 55.855469 9.84375 55.722656 9.84375 C 50.515625 9.84375 46.28125 13.953125 46.0625 19.09375 L 96.683594 19.09375 " fill-opacity="1" fill-rule="nonzero"/></g><path fill="#ffffff" d="M 186.394531 26.886719 C 186.382812 22.449219 183.375 18.71875 179.28125 17.597656 C 179.289062 17.484375 179.289062 17.371094 179.289062 17.25 C 179.289062 11.917969 174.953125 7.59375 169.609375 7.59375 C 166.320312 7.59375 163.414062 9.234375 161.667969 11.734375 C 159.980469 10.078125 157.667969 9.054688 155.117188 9.054688 C 150.207031 9.054688 146.183594 12.839844 145.820312 17.648438 C 145.691406 17.640625 145.566406 17.636719 145.433594 17.636719 C 140.226562 17.636719 135.992188 21.742188 135.773438 26.886719 L 186.394531 26.886719 " fill-opacity="1" fill-rule="nonzero"/></svg>