<svg xmlns="http://www.w3.org/2000/svg" xmlns:xlink="http://www.w3.org/1999/xlink" width="100" zoomAndPan="magnify" viewBox="0 0 75 74.999997" height="100" preserveAspectRatio="xMidYMid meet" version="1.0"><path fill="#ffffff" d="M 53.992188 29.253906 C 53.992188 29.253906 54.558594 41.226562 45.429688 48.621094 C 31.8125 59.679688 17.121094 50.707031 17.121094 50.707031 C 17.121094 50.707031 20.691406 50.769531 23.851562 49.914062 C 27.011719 49.0625 29.253906 47.039062 29.253906 47.039062 C 29.253906 47.039062 25.8125 46.3125 24.042969 45.019531 C 22.242188 43.722656 21.578125 41.226562 21.578125 41.226562 C 21.578125 41.226562 22.746094 41.324219 23.503906 41.324219 C 24.261719 41.292969 25.179688 40.945312 25.179688 40.945312 C 25.179688 40.945312 22.714844 40.660156 20.410156 38.070312 C 18.609375 36.046875 18.734375 32.667969 18.734375 32.667969 C 18.734375 32.667969 19.808594 33.296875 20.410156 33.457031 C 20.976562 33.613281 22.082031 33.613281 22.082031 33.613281 C 22.082031 33.613281 19.933594 32.320312 18.957031 29.035156 C 18.007812 25.714844 19.839844 22.367188 19.839844 22.367188 C 19.839844 22.367188 23 26.222656 27.769531 28.71875 C 32.539062 31.214844 37.027344 31.117188 37.027344 31.117188 C 37.027344 31.117188 36.363281 29.128906 37.5 26.222656 C 38.636719 23.285156 41.226562 21.199219 45.144531 20.882812 C 49.0625 20.566406 51.558594 23.535156 51.558594 23.535156 C 51.558594 23.535156 52.757812 23.316406 54.148438 22.808594 C 55.539062 22.304688 56.898438 21.671875 56.898438 21.671875 C 56.898438 21.671875 56.421875 23.15625 55.476562 24.324219 C 54.527344 25.496094 53.453125 26.191406 53.453125 26.191406 C 53.453125 26.191406 54.6875 26.09375 55.917969 25.746094 C 57.148438 25.398438 57.84375 25.050781 57.84375 25.050781 C 56.488281 27.453125 53.992188 29.253906 53.992188 29.253906 Z M 53.992188 29.253906 " fill-opacity="1" fill-rule="nonzero"/><path fill="#ffffff" d="M 37.5 75 C 16.839844 75 0 58.191406 0 37.5 C 0 16.808594 16.839844 0 37.5 0 C 58.160156 0 75 16.839844 75 37.5 C 75 58.160156 58.191406 75 37.5 75 Z M 37.5 2.054688 C 17.945312 2.054688 2.054688 17.945312 2.054688 37.5 C 2.054688 57.054688 17.945312 72.945312 37.5 72.945312 C 57.054688 72.945312 72.945312 57.054688 72.945312 37.5 C 72.945312 17.945312 57.054688 2.054688 37.5 2.054688 Z M 37.5 2.054688 " fill-opacity="1" fill-rule="nonzero"/></svg>